# xmcd
#
# Track frame offsets:
#   150
#   16288
#   30640
#   43434
#
# Disc length: 841 seconds
#
# Revision: 0
# Processed by: cddbd v1.5.2PL0 Copyright (c) Steve Scherf et al.
# Submitted via: GXTranscoder 2.0.1939
#
DISCID=2d034704
DTITLE=Andy Jackson and Rainer Colada - Two of a kind working on a full house
DYEAR=2010
DGENRE=Country
TTITLE0=Give me one more shot
TTITLE1=Face on a cutting
TTITLE2=Laid back
TTITLE3=Toes
EXTD=
EXTT0=
EXTT1=
EXTT2=
EXTT3=
PLAYORDER=
